HIERARCHY
ROOT SimulationBone
{
	OFFSET 0.000000 0.000000 0.000000
	CHANNELS 6 Xposition Yposition Zposition Zrotation Yrotation Xrotation 
	JOINT Hips
	{
		OFFSET 0.000000 0.000000 0.000000
		CHANNELS 6 Xposition Yposition Zposition Zrotation Yrotation Xrotation 
		JOINT RightUpLeg
		{
			OFFSET 0.103458 1.857831 10.548500
			CHANNELS 3 Zrotation Yrotation Xrotation
			JOINT RightLeg
			{
				OFFSET 43.500000 -0.000027 -0.000013
				CHANNELS 3 Zrotation Yrotation Xrotation
				JOINT RightFoot
				{
					OFFSET 42.372196 0.000031 0.000011
					CHANNELS 3 Zrotation Yrotation Xrotation
					JOINT RightToe
					{
						OFFSET 17.299994 -0.000003 -0.000004
						CHANNELS 3 Zrotation Yrotation Xrotation
						End Site
						{
							OFFSET 0.000000 0.000000 0.000000
						}
					}
				}
			}
		}
		JOINT LeftUpLeg
		{
			OFFSET 0.103455 1.857826 -10.548502
			CHANNELS 3 Zrotation Yrotation Xrotation
			JOINT LeftLeg
			{
				OFFSET 43.500038 -0.000023 0.000010
				CHANNELS 3 Zrotation Yrotation Xrotation
				JOINT LeftFoot
				{
					OFFSET 42.372261 0.000004 0.000006
					CHANNELS 3 Zrotation Yrotation Xrotation
					JOINT LeftToe
					{
						OFFSET 17.299988 -0.000008 0.000010
						CHANNELS 3 Zrotation Yrotation Xrotation
						End Site
						{
							OFFSET 0.000000 0.000000 0.000000
						}
					}
				}
			}
		}
		JOINT Spine
		{
			OFFSET 6.901968 -2.603722 -0.000004
			CHANNELS 3 Zrotation Yrotation Xrotation
			JOINT Spine1
			{
				OFFSET 12.588099 -0.000002 0.000005
				CHANNELS 3 Zrotation Yrotation Xrotation
				JOINT Spine2
				{
					OFFSET 12.343202 -0.000017 -0.000005
					CHANNELS 3 Zrotation Yrotation Xrotation
					JOINT Neck
					{
						OFFSET 25.832903 0.000008 0.000008
						CHANNELS 3 Zrotation Yrotation Xrotation
						JOINT Head
						{
							OFFSET 11.766607 0.000004 -0.000001
							CHANNELS 3 Zrotation Yrotation Xrotation
							End Site
							{
								OFFSET 0.000000 0.000000 0.000000
							}
						}
					}
					JOINT RightShoulder
					{
						OFFSET 19.745907 -1.480366 6.000107
						CHANNELS 3 Zrotation Yrotation Xrotation
						JOINT RightArm
						{
							OFFSET 11.284126 -0.000031 -0.000025
							CHANNELS 3 Zrotation Yrotation Xrotation
							JOINT RightForeArm
							{
								OFFSET 33.000050 0.000011 0.000029
								CHANNELS 3 Zrotation Yrotation Xrotation
								JOINT RightHand
								{
									OFFSET 25.200008 0.000009 0.000011
									CHANNELS 3 Zrotation Yrotation Xrotation
									End Site
									{
										OFFSET 0.000000 0.000000 0.000000
									}
								}
							}
						}
					}
					JOINT LeftShoulder
					{
						OFFSET 19.746094 -1.480364 -6.000070
						CHANNELS 3 Zrotation Yrotation Xrotation
						JOINT LeftArm
						{
							OFFSET 11.284145 -0.000017 -0.000020
							CHANNELS 3 Zrotation Yrotation Xrotation
							JOINT LeftForeArm
							{
								OFFSET 33.000088 0.000019 0.000022
								CHANNELS 3 Zrotation Yrotation Xrotation
								JOINT LeftHand
								{
									OFFSET 25.199780 0.000137 0.000414
									CHANNELS 3 Zrotation Yrotation Xrotation
									End Site
									{
										OFFSET 0.000000 0.000000 0.000000
									}
								}
							}
						}
					}
				}
			}
		}
	}
}
MOTION
Frames: 10
Frame Time: 0.016667
5.780308 0.000000 -636.351382 0.000000 -24.934308 0.000000 -3.846435 91.515106 -0.700652 88.708070 -2.518092 176.950274 178.328906 -1.409997 174.614948 -20.659065 -4.414385 -13.691564 87.131874 8.219217 -7.867356 21.454558 0.003109 0.000017 155.952925 6.039635 -179.717091 -23.205077 2.433481 -7.222907 79.415888 7.671178 10.093249 21.454552 -0.003089 -0.000001 9.076446 -1.023331 -0.322931 8.147645 -2.021339 -0.717132 7.829352 -2.025772 -0.704908 2.738832 4.948138 -10.320151 -6.037263 10.708817 -11.892802 139.339456 -73.250096 40.281294 0.187800 42.253797 20.599118 -56.376908 -20.486642 2.370820 9.111969 -10.949994 22.443946 176.406207 73.455087 -2.341790 -31.411515 -53.605827 -7.536011 -36.090817 21.967617 -1.807265 22.206053 19.234627 21.785745 
5.408273 0.000000 -637.004361 0.000000 -26.784665 0.000000 -3.859333 91.442497 -0.579244 88.692735 -2.497460 176.834137 178.096076 -1.115097 173.866960 -20.934362 -4.578378 -14.345269 87.486512 8.704448 -7.746486 21.454555 0.003109 0.000017 155.730198 5.811492 -179.360754 -23.806105 2.205297 -5.284371 80.563863 6.134909 10.006072 21.454551 -0.003089 -0.000001 9.077327 -1.091749 -0.347075 8.150506 -2.156304 -0.770221 7.832193 -2.161052 -0.757183 2.925153 4.505899 -10.198789 -6.289804 10.739177 -11.930667 140.334512 -73.347888 39.261676 -0.087031 41.151684 18.506281 -56.638506 -20.803312 2.402169 8.729173 -11.148892 22.566897 176.182298 73.345839 -2.574655 -29.942749 -52.507912 -10.552953 -33.389396 20.937093 -1.681408 23.009154 18.027600 23.561269 
5.038762 0.000000 -637.605962 0.000000 -28.584218 0.000000 -3.870269 91.442930 -0.459455 88.693460 -2.322168 176.754428 177.924564 -0.995877 173.258124 -21.062840 -4.724618 -15.031994 87.659697 9.199131 -7.662117 21.454555 0.003109 0.000017 155.658144 5.373728 -179.503006 -24.375805 1.992925 -2.551324 81.251731 4.157467 10.238778 21.454552 -0.003092 -0.000001 9.082964 -1.112271 -0.349954 8.162050 -2.197054 -0.777537 7.843725 -2.201841 -0.764257 3.049243 4.007130 -10.078826 -6.557260 10.924767 -12.021630 141.210667 -73.331292 38.371714 -0.328354 40.280886 15.973968 -56.779188 -20.893380 2.413720 8.638326 -11.697436 22.580874 176.285446 73.203172 -2.472595 -28.342663 -51.478316 -13.266450 -31.191651 19.931303 -1.571566 22.684227 16.557075 22.441473 
4.673412 0.000000 -638.154400 0.000000 -30.332949 0.000000 -3.877513 91.512833 -0.337707 88.708337 -2.005993 176.786442 177.804591 -1.003298 172.727780 -21.057041 -4.748512 -15.689470 87.654863 9.655678 -7.635524 21.454557 0.003108 0.000017 155.651747 4.883692 -179.858524 -25.095665 1.871832 0.559076 81.431591 2.025812 10.753121 21.454553 -0.003092 -0.000001 9.096538 -1.083742 -0.354791 8.189013 -2.139624 -0.785432 7.870698 -2.144457 -0.772503 3.031454 3.564846 -9.954224 -6.719891 11.109952 -12.073336 141.842154 -73.285064 37.732722 -0.581000 39.687032 13.219842 -56.934199 -20.885791 2.418814 9.065076 -12.402261 22.505639 176.662611 73.030189 -2.089785 -26.661188 -50.501612 -15.800654 -29.366257 18.998996 -1.473092 21.463465 15.091656 19.107459 
4.312470 0.000000 -638.648751 0.000000 -32.029646 0.000000 -3.868863 91.633184 -0.209750 88.744072 -1.597532 176.992821 177.722786 -1.070269 172.225787 -20.965761 -4.577270 -16.263136 87.499265 10.033188 -7.685535 21.454557 0.003108 0.000017 155.619474 4.515864 179.923096 -26.159481 1.871734 3.500185 81.191822 0.077689 11.352101 21.454552 -0.003085 -0.000001 9.119188 -1.013457 -0.387883 8.234182 -1.996707 -0.846932 7.915906 -2.001917 -0.834868 2.851895 3.262484 -9.814809 -6.709549 11.139842 -12.005411 142.191317 -73.303803 37.375940 -0.879909 39.378721 10.555351 -57.198147 -20.938603 2.432114 10.036511 -13.003825 22.360630 177.186046 72.853412 -1.556531 -24.968675 -49.547932 -18.404044 -27.773204 18.188809 -1.390056 19.707304 13.833354 14.616872 
3.955577 0.000000 -639.086921 0.000000 -33.673106 0.000000 -3.837597 91.755020 -0.090465 88.805487 -1.205892 177.310946 177.652879 -1.115497 171.753399 -20.881580 -4.292956 -16.784491 87.285616 10.359890 -7.796285 21.454557 0.003108 0.000017 155.568487 4.378096 -179.878578 -27.502517 1.895228 5.816228 80.888194 -1.538565 11.397962 21.454551 -0.003080 -0.000001 9.143526 -0.928978 -0.446155 8.282891 -1.823603 -0.957685 7.964667 -1.829489 -0.946665 2.621200 3.059551 -9.671355 -6.638271 11.040359 -11.865397 142.340717 -73.369185 37.218901 -1.116565 39.277306 8.097905 -57.484722 -21.025545 2.448984 10.820538 -13.355304 22.269699 177.758801 72.742788 -0.970582 -23.255091 -48.707980 -21.137486 -26.542874 17.626939 -1.334404 17.993445 12.605001 10.272758 
3.602445 0.000000 -639.466008 0.000000 -35.262634 0.000000 -3.782085 91.834512 0.004006 88.891073 -0.927574 177.657868 177.583196 -1.078955 171.329776 -20.866552 -4.009484 -17.302241 87.101143 10.677698 -7.939689 21.454559 0.003108 0.000017 155.528694 4.526289 -179.088066 -29.019233 1.803679 7.214061 80.875557 -2.750318 10.428821 21.454551 -0.003084 -0.000000 9.161764 -0.856893 -0.518772 8.319601 -1.674242 -1.097839 8.001422 -1.680981 -1.087717 2.457497 2.902635 -9.536483 -6.633037 10.869259 -11.715577 142.369247 -73.438565 37.184568 -1.167442 39.302198 5.925093 -57.719926 -21.091211 2.462473 10.802345 -13.404210 22.314861 178.315639 72.741928 -0.398090 -21.474183 -48.053377 -23.986816 -25.810629 17.386692 -1.308115 16.856332 11.336192 7.161235 
3.253053 0.000000 -639.784236 0.000000 -36.799564 0.000000 -3.706896 91.878311 0.074816 89.002115 -0.748819 177.994441 177.577064 -0.998395 170.994592 -20.823425 -3.808140 -17.843396 86.944209 11.013251 -8.076831 21.454560 0.003108 0.000017 155.512998 4.872407 -177.873740 -30.662275 1.533096 7.954291 81.120127 -3.561123 9.212159 21.454553 -0.003092 0.000000 9.172861 -0.799562 -0.593084 8.342079 -1.554268 -1.242306 8.023936 -1.561881 -1.232902 2.379160 2.812862 -9.406435 -6.699710 10.629787 -11.548314 142.240491 -73.487873 37.311812 -1.033299 39.419982 4.119702 -58.061327 -21.147509 2.479109 10.612878 -13.342050 22.257121 178.844310 72.743191 0.145553 -19.600788 -47.469206 -26.745876 -25.469976 17.249409 -1.292576 16.476938 10.280920 5.281597 
2.908632 0.000000 -640.041398 0.000000 -38.287546 0.000000 -3.618200 91.903050 0.129965 89.141276 -0.628514 178.298304 177.693510 -0.927099 170.763980 -20.654563 -3.727351 -18.416265 86.796372 11.377481 -8.183044 21.454557 0.003108 0.000017 155.533635 5.302319 -176.468824 -32.382600 1.074528 8.372449 81.484786 -4.010650 8.584643 21.454552 -0.003099 -0.000001 9.178018 -0.752146 -0.657882 8.352568 -1.454829 -1.368380 8.034449 -1.463199 -1.359571 2.366115 2.805668 -9.277393 -6.807465 10.328687 -11.352192 141.946130 -73.504158 37.610052 -0.764366 39.602080 2.733251 -58.655560 -21.211101 2.506018 10.915462 -13.375185 21.899300 179.359413 72.648360 0.673152 -17.656645 -46.852140 -29.223740 -25.361334 17.002984 -1.274867 16.818138 9.659806 4.385172 
2.571065 0.000000 -640.238644 0.000000 -39.730843 0.000000 -3.523892 91.914818 0.180187 89.303932 -0.525602 178.563612 177.895897 -0.885190 170.538240 -20.423411 -3.674954 -18.978809 86.660012 11.733531 -8.300227 21.454555 0.003108 0.000017 155.623196 5.743193 -175.023502 -34.076974 0.508158 8.544292 81.937496 -4.190345 8.387652 21.454553 -0.003098 -0.000001 9.180633 -0.705224 -0.709581 8.357732 -1.357349 -1.468277 8.039635 -1.366318 -1.460056 2.343605 2.798807 -9.162262 -6.898560 10.041450 -11.170771 141.703691 -73.501800 37.856892 -0.494307 39.805402 1.678814 -59.372737 -21.251111 2.536270 11.257429 -13.527173 21.535752 179.987902 72.547629 1.317442 -15.744559 -46.298037 -31.568413 -25.345284 16.755299 -1.259207 17.311654 9.382248 4.299919 
